<svg xmlns="http://www.w3.org/2000/svg" viewBox="0 0 512 512" fill="none">
  <defs>
    <linearGradient id="bg" x1="64" y1="0" x2="448" y2="512" gradientUnits="userSpaceOnUse">
      <stop offset="0" stop-color="#34437a"/>
      <stop offset="1" stop-color="#0d1019"/>
    </linearGradient>
    <radialGradient id="glow" cx="0" cy="0" r="1" gradientUnits="userSpaceOnUse" gradientTransform="translate(150 70) rotate(45) scale(420)">
      <stop offset="0" stop-color="#8fb0ff" stop-opacity=".38"/>
      <stop offset="1" stop-color="#8fb0ff" stop-opacity="0"/>
    </radialGradient>
  </defs>
  <rect width="512" height="512" rx="116" fill="url(#bg)"/>
  <rect width="512" height="512" rx="116" fill="url(#glow)"/>
  <circle cx="212" cy="256" r="104" fill="#ffffff"/>
  <circle cx="300" cy="256" r="104" fill="#9db8ff" fill-opacity=".55"/>
  <g transform="translate(256 258) scale(0.36) translate(-256 -251)" fill="#2b3a74" stroke="#2b3a74">
    <path d="M168 142h176v66a88 88 0 0 1-176 0z" stroke="none"/>
    <path d="M168 176h-22c-30 0-30 62 0 62h26M344 176h22c30 0 30 62 0 62h-26" fill="none" stroke-width="20" stroke-linecap="round" stroke-linejoin="round"/>
    <rect x="243" y="292" width="26" height="46" stroke="none"/>
    <rect x="196" y="334" width="120" height="26" rx="13" stroke="none"/>
  </g>
</svg>
